<?xml version="1.0" encoding="UTF-8"?>
<svg version="1.1" xmlns="http://www.w3.org/2000/svg" width="1080" height="1080">
<path d="M0 0 C356.4 0 712.8 0 1080 0 C1080 356.4 1080 712.8 1080 1080 C723.6 1080 367.2 1080 0 1080 C0 723.6 0 367.2 0 0 Z " fill="#FEFEFE" transform="translate(0,0)"/>
<path d="M0 0 C1.10972168 0.0009668 2.21944336 0.00193359 3.36279297 0.00292969 C21.67128613 0.3545992 39.8759876 3.35305592 57.99365234 5.80175781 C65.03466415 6.74949308 72.08498201 7.61145038 79.1395874 8.45101929 C82.42555219 8.8424076 85.71074848 9.24016907 88.99609375 9.63671875 C90.26437012 9.78931152 91.53264648 9.9419043 92.83935547 10.09912109 C99.45583497 10.89585235 106.07165915 11.69798678 112.6875 12.5 C113.35925262 12.58140228 114.03100525 12.66280457 114.72311401 12.74667358 C131.62778517 14.79524376 148.53065714 16.85856303 165.43359375 18.92138672 C173.16668757 19.86508934 180.89987504 20.80802408 188.63305664 21.75100708 C192.90120837 22.27147235 197.16935387 22.7919888 201.4375 23.3125 C203.1458333 23.52083358 204.85416664 23.72916691 206.5625 23.9375 C209.97916667 24.35416667 213.39583333 24.77083333 216.8125 25.1875 C217.65809479 25.29061996 218.50368958 25.39373993 219.37490845 25.49998474 C221.08354827 25.70835818 222.79218678 25.91674238 224.50082397 26.12513733 C228.76695736 26.6454452 233.03311326 27.16556716 237.29931641 27.68530273 C245.04283848 28.62885357 252.7861739 29.57383141 260.52868652 30.52563477 C264.87317998 31.05966271 269.21781413 31.59253991 273.5625 32.125 C274.41114624 32.22907166 275.25979248 32.33314331 276.13415527 32.44036865 C288.96243939 34.01136023 301.79874391 35.49697464 314.64263916 36.93426514 C324.09905426 37.9948649 333.52115316 39.19037933 342.92822266 40.6315918 C347.90617664 41.37545359 352.78347984 41.77916478 357.8125 42 C367.67230393 42.56095165 375.93146095 45.14009923 382.6875 52.5625 C385.11531404 56.21357264 387.12322986 60.03995729 389.125 63.9375 C389.68413086 64.99936523 390.24326172 66.06123047 390.81933594 67.15527344 C392.45912635 70.28251367 394.07651713 73.4203416 395.6875 76.5625 C396.13432129 77.42584961 396.58114258 78.28919922 397.04150391 79.17871094 C398.18218591 81.38569249 399.31381607 83.59682241 400.4375 85.8125 C400.92174438 86.76648682 400.92174438 86.76648682 401.41577148 87.73974609 C405.95823113 96.89514966 405.69750537 105.31707361 402.5859375 115 C402.36419861 115.69687927 402.14245972 116.39375854 401.91400146 117.11175537 C399.45779412 124.59602322 396.2698947 131.68565771 392.9375 138.8125 C392.28269214 140.23170431 391.62857651 141.65122818 390.97509766 143.07104492 C385.01198687 155.99309254 378.91781595 168.85514571 372.82098389 181.71450806 C367.22919004 193.50915147 361.72899351 205.34482047 356.24804688 217.19140625 C353.56644383 222.98420582 350.87648597 228.77312486 348.1875 234.5625 C344.94815883 241.53857107 341.70937095 248.51489738 338.47265625 255.4921875 C331.15469011 271.2650637 323.81100542 287.02576524 316.45361328 302.78027344 C313.82175654 308.41615032 311.19169121 314.05286317 308.56149292 319.68951416 C307.10356887 322.81387712 305.64552854 325.93818581 304.1875 329.0625 C303.60416611 330.31249974 303.02083278 331.56249974 302.4375 332.8125 C256.93749996 430.31250008 256.93749996 430.31250008 256.06246948 432.18756104 C255.47923342 433.43735551 254.89600181 434.68715205 254.31277466 435.93695068 C252.85298964 439.06511236 251.39312685 442.1932377 249.93310547 445.32128906 C247.32535006 450.90851961 244.71809043 456.49597798 242.11383057 462.08483887 C235.32838367 476.64657723 228.51445559 491.19447207 221.6675415 505.72741699 C216.98697306 515.66293246 212.32604273 525.60729794 207.6875 535.5625 C201.07297735 549.75688003 194.40841005 563.92745929 187.73429871 578.09390259 C185.39269315 583.06436617 183.05312232 588.03578299 180.71484375 593.0078125 C171.06031956 613.53608521 161.38988743 634.05680075 151.6875 654.5625 C151.11261841 655.77767303 151.11261841 655.77767303 150.52612305 657.01739502 C141.16850978 676.79466711 131.76602496 696.54797685 122.19433594 716.22265625 C118.84613995 723.10539212 115.51563628 729.99574451 112.22753906 736.9074707 C110.05909726 741.46472124 107.87489144 746.01432136 105.6875 750.5625 C104.98584717 752.02695557 104.98584717 752.02695557 104.27001953 753.52099609 C102.83755174 756.49900857 101.38963238 759.46903464 99.9375 762.4375 C99.51364014 763.32332764 99.08978027 764.20915527 98.65307617 765.12182617 C92.02143715 778.55823733 82.83590132 789.08296328 68.6875 794.5625 C62.50726888 796.37425106 56.60330742 796.87529746 50.1875 796.8125 C49.39730469 796.82023438 48.60710937 796.82796875 47.79296875 796.8359375 C42.15291932 796.8174758 37.14167809 795.92155097 31.6875 794.5625 C29.20649753 793.99244609 26.7247532 793.42642053 24.2421875 792.86328125 C22.83748283 792.54194473 21.4328628 792.22023804 20.02832031 791.89819336 C3.19210437 788.04030193 -13.65182413 784.21808031 -30.50195312 780.42138672 C-35.64445377 779.26228131 -40.78648073 778.10108301 -45.9284668 776.93969727 C-48.51582404 776.35535038 -51.10322633 775.77120293 -53.69067383 775.18725586 C-60.13698643 773.73231803 -66.58272491 772.27492332 -73.02734375 770.8125 C-88.59269603 767.28140664 -88.59269603 767.28140664 -104.1796875 763.84765625 C-104.83301056 763.70596512 -105.48633362 763.56427399 -106.15945435 763.41828918 C-107.48404477 763.13112248 -108.80863991 762.84397755 -110.13323975 762.55685425 C-121.99214038 759.98560271 -133.81792665 757.29984641 -145.625 754.5 C-163.15207689 750.34551936 -180.71952049 746.40219664 -198.33203125 742.625 C-201.53394185 741.93790779 -204.73576651 741.25041706 -207.9375 740.5625 C-208.73409027 740.39139709 -209.53068054 740.22029419 -210.35140991 740.04400635 C-221.07649329 737.73668311 -231.76235021 735.31293567 -242.41992188 732.70874023 C-251.99694749 730.37382594 -261.61602495 728.24654202 -271.2421875 726.125 C-279.9835629 724.1982297 -288.71479025 722.22683539 -297.44335938 720.24291992 C-303.49159239 718.86894529 -309.54137563 717.50623147 -315.60351562 716.19474792 C-318.38211665 715.59290413 -321.15905102 714.98355893 -323.93591309 714.37374878 C-325.86359195 713.95360837 -327.79357759 713.54409485 -329.72363281 713.13500977 C-343.39065882 710.12476911 -359.19280661 706.00503685 -367.3125 693.5625 C-368.32171632 690.8392828 -368.81963852 688.10138747 -369.296875 685.2421875 C-369.4428009 684.46110626 -369.58872681 683.68002502 -369.73907471 682.87527466 C-370.19784162 680.39885571 -370.63070574 677.91874905 -371.0625 675.4375 C-371.36674248 673.76400435 -371.672716 672.09082243 -371.98046875 670.41796875 C-372.54315542 667.35582714 -373.09378169 664.29194291 -373.63574219 661.22607422 C-374.00357356 659.23484855 -374.3925273 657.24517614 -374.88769531 655.28173828 C-378.03645516 642.53830907 -370.34965349 630.09726945 -364.65107501 619.28642011 C-362.2583861 614.74397376 -359.90433595 610.18146195 -357.54379272 605.62225342 C-357.03888732 604.64933354 -356.53398193 603.67641365 -356.01377636 602.67401135 C-350.07107462 591.20572124 -344.29972818 579.65244825 -338.53051758 568.09619141 C-337.39897613 565.83174272 -336.26738206 563.56732032 -335.13573742 561.3029232 C-332.4885726 556.00461053 -329.84311318 550.70544827 -327.19833608 545.40594349 C-324.08288075 539.1636749 -320.96461046 532.92281375 -317.84615584 526.68204312 C-312.27742805 515.53760758 -306.71020242 504.39242247 -301.14428711 493.24658203 C-300.81486505 492.58691009 -300.48544298 491.92723816 -300.14603844 491.24757616 C-298.14122796 487.23289642 -296.13645482 483.21819805 -294.13169479 479.20349312 C-291.10339139 473.13905446 -288.07505347 467.07463304 -285.04663086 461.01025391 C-284.71429759 460.34475925 -284.38196433 459.67926459 -284.03956036 458.99360342 C-278.47385006 447.84843987 -272.90653199 436.70408018 -267.33809775 425.56027734 C-263.93024108 418.74012846 -260.52378899 411.91928176 -257.11926564 405.0974683 C-254.51301089 399.87544219 -251.90465847 394.65446602 -249.29558182 389.43384933 C-248.23637248 387.31357758 -247.17784681 385.19296411 -246.12010384 383.07196045 C-240.75462988 372.31392954 -235.33836148 361.59107664 -229.69795018 350.97405493 C-226.13640331 344.26991276 -222.71556369 337.49815439 -219.33740234 330.69995117 C-217.68097207 327.36963431 -216.02272935 324.04024215 -214.36181641 320.7121582 C-211.67640449 315.33008705 -208.99418698 309.94642791 -206.3125 304.5625 C-203.19681636 298.30725237 -200.07970303 292.05272503 -196.95916748 285.79989624 C-195.73360945 283.34245681 -194.51052771 280.88379681 -193.28759766 278.42504883 C-188.88277346 269.58702667 -184.37071486 260.81424724 -179.75350952 252.0852356 C-176.86963206 246.63227389 -174.04566019 241.15530118 -171.3125 235.625 C-170.90644531 234.809104 -170.50039063 233.99320801 -170.08203125 233.15258789 C-168.82345616 230.62357807 -167.56757792 228.09324696 -166.3125 225.5625 C-160.93480075 214.71887363 -155.48941889 203.9244083 -149.82409668 193.2277832 C-146.38224476 186.72244745 -143.06975665 180.16250559 -139.8125 173.5625 C-135.74045835 165.31153897 -131.5318941 157.14801706 -127.23202515 149.01411438 C-124.24032285 143.34683516 -121.29440484 137.65804657 -118.3828125 131.94921875 C-117.97936111 131.15823792 -117.57590973 130.36725708 -117.16023254 129.55230713 C-116.33894477 127.94146044 -115.51780405 126.33053877 -114.69680786 124.71954346 C-108.43964388 112.44904246 -102.15188241 100.20981144 -95.47485352 88.16088867 C-92.38850271 82.58123344 -89.43088081 76.94699114 -86.52172852 71.27294922 C-81.71483788 61.90147229 -76.76968161 52.64712981 -71.4375 43.5625 C-70.92646729 42.68529297 -70.41543457 41.80808594 -69.88891602 40.90429688 C-58.42141697 21.64618534 -43.38880427 8.7041664 -21.40942383 2.7800293 C-14.20340228 0.98933214 -7.42114212 -0.01684709 0 0 Z " fill="#FEFEFE" transform="translate(440.3125,153.4375)"/>
<path d="M0 0 C1.10972168 0.0009668 2.21944336 0.00193359 3.36279297 0.00292969 C21.67128613 0.3545992 39.8759876 3.35305592 57.99365234 5.80175781 C65.03466415 6.74949308 72.08498201 7.61145038 79.1395874 8.45101929 C82.42555219 8.8424076 85.71074848 9.24016907 88.99609375 9.63671875 C90.26437012 9.78931152 91.53264648 9.9419043 92.83935547 10.09912109 C99.45583497 10.89585235 106.07165915 11.69798678 112.6875 12.5 C113.35925262 12.58140228 114.03100525 12.66280457 114.72311401 12.74667358 C131.62778517 14.79524376 148.53065714 16.85856303 165.43359375 18.92138672 C173.16668757 19.86508934 180.89987504 20.80802408 188.63305664 21.75100708 C192.90120837 22.27147235 197.16935387 22.7919888 201.4375 23.3125 C203.1458333 23.52083358 204.85416664 23.72916691 206.5625 23.9375 C209.97916667 24.35416667 213.39583333 24.77083333 216.8125 25.1875 C217.65809479 25.29061996 218.50368958 25.39373993 219.37490845 25.49998474 C221.08354827 25.70835818 222.79218678 25.91674238 224.50082397 26.12513733 C228.76695736 26.6454452 233.03311326 27.16556716 237.29931641 27.68530273 C245.04283848 28.62885357 252.7861739 29.57383141 260.52868652 30.52563477 C264.87317998 31.05966271 269.21781413 31.59253991 273.5625 32.125 C274.41114624 32.22907166 275.25979248 32.33314331 276.13415527 32.44036865 C288.96243939 34.01136023 301.79874391 35.49697464 314.64263916 36.93426514 C324.09905426 37.9948649 333.52115316 39.19037933 342.92822266 40.6315918 C347.90617664 41.37545359 352.78347984 41.77916478 357.8125 42 C367.67230393 42.56095165 375.93146095 45.14009923 382.6875 52.5625 C385.11531404 56.21357264 387.12322986 60.03995729 389.125 63.9375 C389.68413086 64.99936523 390.24326172 66.06123047 390.81933594 67.15527344 C392.45912635 70.28251367 394.07651713 73.4203416 395.6875 76.5625 C396.13432129 77.42584961 396.58114258 78.28919922 397.04150391 79.17871094 C398.18218591 81.38569249 399.31381607 83.59682241 400.4375 85.8125 C400.92174438 86.76648682 400.92174438 86.76648682 401.41577148 87.73974609 C405.95823113 96.89514966 405.69750537 105.31707361 402.5859375 115 C402.36419861 115.69687927 402.14245972 116.39375854 401.91400146 117.11175537 C399.45779412 124.59602322 396.2698947 131.68565771 392.9375 138.8125 C392.28269214 140.23170431 391.62857651 141.65122818 390.97509766 143.07104492 C385.01198687 155.99309254 378.91781595 168.85514571 372.82098389 181.71450806 C367.22919004 193.50915147 361.72899351 205.34482047 356.24804688 217.19140625 C353.56644383 222.98420582 350.87648597 228.77312486 348.1875 234.5625 C344.94815883 241.53857107 341.70937095 248.51489738 338.47265625 255.4921875 C331.15469011 271.2650637 323.81100542 287.02576524 316.45361328 302.78027344 C313.82175654 308.41615032 311.19169121 314.05286317 308.56149292 319.68951416 C307.10356887 322.81387712 305.64552854 325.93818581 304.1875 329.0625 C303.60416611 330.31249974 303.02083278 331.56249974 302.4375 332.8125 C256.93749996 430.31250008 256.93749996 430.31250008 256.06246948 432.18756104 C255.47923342 433.43735551 254.89600181 434.68715205 254.31277466 435.93695068 C252.85298964 439.06511236 251.39312685 442.1932377 249.93310547 445.32128906 C247.32535006 450.90851961 244.71809043 456.49597798 242.11383057 462.08483887 C235.32838367 476.64657723 228.51445559 491.19447207 221.6675415 505.72741699 C216.98697306 515.66293246 212.32604273 525.60729794 207.6875 535.5625 C201.07297735 549.75688003 194.40841005 563.92745929 187.73429871 578.09390259 C185.39269315 583.06436617 183.05312232 588.03578299 180.71484375 593.0078125 C171.06031956 613.53608521 161.38988743 634.05680075 151.6875 654.5625 C151.11261841 655.77767303 151.11261841 655.77767303 150.52612305 657.01739502 C141.16850978 676.79466711 131.76602496 696.54797685 122.19433594 716.22265625 C118.84613995 723.10539212 115.51563628 729.99574451 112.22753906 736.9074707 C110.05909726 741.46472124 107.87489144 746.01432136 105.6875 750.5625 C104.98584717 752.02695557 104.98584717 752.02695557 104.27001953 753.52099609 C102.83755174 756.49900857 101.38963238 759.46903464 99.9375 762.4375 C99.51364014 763.32332764 99.08978027 764.20915527 98.65307617 765.12182617 C92.02143715 778.55823733 82.83590132 789.08296328 68.6875 794.5625 C62.50726888 796.37425106 56.60330742 796.87529746 50.1875 796.8125 C49.39730469 796.82023438 48.60710937 796.82796875 47.79296875 796.8359375 C42.15291932 796.8174758 37.14167809 795.92155097 31.6875 794.5625 C29.20649753 793.99244609 26.7247532 793.42642053 24.2421875 792.86328125 C22.83748283 792.54194473 21.4328628 792.22023804 20.02832031 791.89819336 C3.19210437 788.04030193 -13.65182413 784.21808031 -30.50195312 780.42138672 C-35.64445377 779.26228131 -40.78648073 778.10108301 -45.9284668 776.93969727 C-48.51582404 776.35535038 -51.10322633 775.77120293 -53.69067383 775.18725586 C-60.13698643 773.73231803 -66.58272491 772.27492332 -73.02734375 770.8125 C-88.59269603 767.28140664 -88.59269603 767.28140664 -104.1796875 763.84765625 C-104.83301056 763.70596512 -105.48633362 763.56427399 -106.15945435 763.41828918 C-107.48404477 763.13112248 -108.80863991 762.84397755 -110.13323975 762.55685425 C-121.99214038 759.98560271 -133.81792665 757.29984641 -145.625 754.5 C-163.15207689 750.34551936 -180.71952049 746.40219664 -198.33203125 742.625 C-201.53394185 741.93790779 -204.73576651 741.25041706 -207.9375 740.5625 C-208.73409027 740.39139709 -209.53068054 740.22029419 -210.35140991 740.04400635 C-221.07649329 737.73668311 -231.76235021 735.31293567 -242.41992188 732.70874023 C-251.99694749 730.37382594 -261.61602495 728.24654202 -271.2421875 726.125 C-279.9835629 724.1982297 -288.71479025 722.22683539 -297.44335938 720.24291992 C-303.49159239 718.86894529 -309.54137563 717.50623147 -315.60351562 716.19474792 C-318.38211665 715.59290413 -321.15905102 714.98355893 -323.93591309 714.37374878 C-325.86359195 713.95360837 -327.79357759 713.54409485 -329.72363281 713.13500977 C-343.39065882 710.12476911 -359.19280661 706.00503685 -367.3125 693.5625 C-368.32171632 690.8392828 -368.81963852 688.10138747 -369.296875 685.2421875 C-369.4428009 684.46110626 -369.58872681 683.68002502 -369.73907471 682.87527466 C-370.19784162 680.39885571 -370.63070574 677.91874905 -371.0625 675.4375 C-371.36674248 673.76400435 -371.672716 672.09082243 -371.98046875 670.41796875 C-372.54315542 667.35582714 -373.09378169 664.29194291 -373.63574219 661.22607422 C-374.00357356 659.23484855 -374.3925273 657.24517614 -374.88769531 655.28173828 C-378.03645516 642.53830907 -370.34965349 630.09726945 -364.65107501 619.28642011 C-362.2583861 614.74397376 -359.90433595 610.18146195 -357.54379272 605.62225342 C-357.03888732 604.64933354 -356.53398193 603.67641365 -356.01377636 602.67401135 C-350.07107462 591.20572124 -344.29972818 579.65244825 -338.53051758 568.09619141 C-337.39897613 565.83174272 -336.26738206 563.56732032 -335.13573742 561.3029232 C-332.4885726 556.00461053 -329.84311318 550.70544827 -327.19833608 545.40594349 C-324.08288075 539.1636749 -320.96461046 532.92281375 -317.84615584 526.68204312 C-312.27742805 515.53760758 -306.71020242 504.39242247 -301.14428711 493.24658203 C-300.81486505 492.58691009 -300.48544298 491.92723816 -300.14603844 491.24757616 C-298.14122796 487.23289642 -296.13645482 483.21819805 -294.13169479 479.20349312 C-291.10339139 473.13905446 -288.07505347 467.07463304 -285.04663086 461.01025391 C-284.71429759 460.34475925 -284.38196433 459.67926459 -284.03956036 458.99360342 C-278.47385006 447.84843987 -272.90653199 436.70408018 -267.33809775 425.56027734 C-263.93024108 418.74012846 -260.52378899 411.91928176 -257.11926564 405.0974683 C-254.51301089 399.87544219 -251.90465847 394.65446602 -249.29558182 389.43384933 C-248.23637248 387.31357758 -247.17784681 385.19296411 -246.12010384 383.07196045 C-240.75462988 372.31392954 -235.33836148 361.59107664 -229.69795018 350.97405493 C-226.13640331 344.26991276 -222.71556369 337.49815439 -219.33740234 330.69995117 C-217.68097207 327.36963431 -216.02272935 324.04024215 -214.36181641 320.7121582 C-211.67640449 315.33008705 -208.99418698 309.94642791 -206.3125 304.5625 C-203.19681636 298.30725237 -200.07970303 292.05272503 -196.95916748 285.79989624 C-195.73360945 283.34245681 -194.51052771 280.88379681 -193.28759766 278.42504883 C-188.88277346 269.58702667 -184.37071486 260.81424724 -179.75350952 252.0852356 C-176.86963206 246.63227389 -174.04566019 241.15530118 -171.3125 235.625 C-170.90644531 234.809104 -170.50039063 233.99320801 -170.08203125 233.15258789 C-168.82345616 230.62357807 -167.56757792 228.09324696 -166.3125 225.5625 C-160.93480075 214.71887363 -155.48941889 203.9244083 -149.82409668 193.2277832 C-146.38224476 186.72244745 -143.06975665 180.16250559 -139.8125 173.5625 C-135.74045835 165.31153897 -131.5318941 157.14801706 -127.23202515 149.01411438 C-124.24032285 143.34683516 -121.29440484 137.65804657 -118.3828125 131.94921875 C-117.97936111 131.15823792 -117.57590973 130.36725708 -117.16023254 129.55230713 C-116.33894477 127.94146044 -115.51780405 126.33053877 -114.69680786 124.71954346 C-108.43964388 112.44904246 -102.15188241 100.20981144 -95.47485352 88.16088867 C-92.38850271 82.58123344 -89.43088081 76.94699114 -86.52172852 71.27294922 C-81.71483788 61.90147229 -76.76968161 52.64712981 -71.4375 43.5625 C-70.92646729 42.68529297 -70.41543457 41.80808594 -69.88891602 40.90429688 C-58.42141697 21.64618534 -43.38880427 8.7041664 -21.40942383 2.7800293 C-14.20340228 0.98933214 -7.42114212 -0.01684709 0 0 Z M-73.3125 56.5625 C-73.8089502 57.52567139 -73.8089502 57.52567139 -74.31542969 58.50830078 C-80.23957339 69.98760333 -86.19754542 81.43866415 -92.4375 92.75 C-96.87199942 100.8008926 -101.08859174 108.93643568 -105.13330078 117.19018555 C-108.42622504 123.88755794 -111.8909381 130.48707263 -115.37641907 137.08546448 C-119.86172107 145.58432657 -124.24933597 154.13181425 -128.625 162.6875 C-129.4845358 164.36649774 -130.34415717 166.04545169 -131.20385742 167.72436523 C-132.54440923 170.34246509 -133.88483681 172.96062806 -135.22480774 175.57902527 C-138.39469698 181.77279505 -141.57104791 187.96322145 -144.75 194.15234375 C-153.31218025 210.82844382 -161.85916404 227.50916051 -170.16918945 244.31274414 C-172.8736318 249.76432414 -175.62705615 255.17782193 -178.48518372 260.54995728 C-183.59919295 270.16765298 -188.51218381 279.87870495 -193.375 289.625 C-193.73478251 290.34600513 -194.09456501 291.06701027 -194.46525002 291.80986404 C-197.0838382 297.0593301 -199.69855666 302.31071988 -202.3125 307.5625 C-204.93252016 312.82648932 -207.55400679 318.08973879 -210.17892456 323.35128784 C-211.20506585 325.40985644 -212.22871614 327.46964892 -213.25219727 329.52954102 C-216.73838488 336.52772603 -220.30811213 343.47362263 -223.97080994 350.38110352 C-229.07268286 360.04288272 -233.99612717 369.78777095 -238.87719727 379.5625 C-239.78327812 381.37330191 -240.68952829 383.1840191 -241.59593201 384.99465942 C-244.02280064 389.84389648 -246.44719427 394.69436672 -248.87098432 399.54514313 C-251.41839251 404.64251552 -253.96777429 409.73890079 -256.51683044 414.83544922 C-260.78552432 423.37102737 -265.0525476 431.90743907 -269.31860352 440.44433594 C-274.2514692 450.31553629 -279.18724598 460.18527698 -284.12449223 470.05428696 C-288.37582709 478.55242507 -292.62560909 487.05133837 -296.87408298 495.55090714 C-299.40669308 500.61768617 -301.9398428 505.68419346 -304.47439766 510.75 C-306.84920171 515.49672776 -309.22205935 520.24442337 -311.59339333 524.99288559 C-312.46467668 526.73677778 -313.33664578 528.48032755 -314.20933914 530.22351456 C-315.39702716 532.59617158 -316.58226158 534.97003806 -317.76686096 537.34423828 C-318.28921077 538.38559181 -318.28921077 538.38559181 -318.8221131 539.44798279 C-320.15807611 542.13092335 -321.36316096 544.71448287 -322.3125 547.5625 C-321.50433838 547.71807373 -320.69617676 547.87364746 -319.86352539 548.03393555 C-288.85454475 554.00774058 -257.90047198 560.22075292 -227 566.734375 C-207.02264 570.94244948 -187.03498109 575.02472164 -166.98193359 578.85644531 C-151.91183178 581.75616151 -136.85905254 584.74514508 -121.875 588.0625 C-111.71357819 590.31056222 -101.50730781 592.30126488 -91.28686523 594.25952148 C-89.95816333 594.51412238 -88.62946869 594.76876115 -87.30078125 595.0234375 C-86.63982956 595.15011307 -85.97887787 595.27678864 -85.29789734 595.40730286 C-74.44916251 597.49140735 -63.62223995 599.68657846 -52.79199219 601.86425781 C-49.55208868 602.51442088 -46.31143103 603.16061243 -43.0703125 603.8046875 C-31.51799182 606.10147027 -19.9743369 608.43920213 -8.4375 610.8125 C-7.73615936 610.95677429 -7.03481873 611.10104858 -6.31222534 611.24969482 C2.57357845 613.07934365 11.45465371 614.93067884 20.33203125 616.80078125 C38.85847431 620.70197504 57.3876529 624.52891312 75.984375 628.08203125 C84.18284768 629.65027517 92.37122742 631.2680737 100.55712891 632.90057373 C102.13152196 633.21436238 103.70606418 633.5274036 105.28076172 633.83966064 C107.4636112 634.27266265 109.64593653 634.70821183 111.828125 635.14453125 C113.70806152 635.51928589 113.70806152 635.51928589 115.62597656 635.90161133 C118.6875 636.5625 118.6875 636.5625 121.6875 637.5625 C123.08189664 637.62915376 124.47919875 637.64788199 125.875 637.625 C127.7621875 637.5940625 127.7621875 637.5940625 129.6875 637.5625 C129.99751953 636.89234863 130.30753906 636.22219727 130.62695312 635.53173828 C137.26685264 621.18636586 143.94738923 606.86107383 150.6875 592.5625 C157.74404817 577.58853744 164.74160354 562.58816657 171.6875 547.5625 C172.01600952 546.85198486 172.34451904 546.14146973 172.6829834 545.40942383 C183.36247221 522.30991835 194.01095787 499.1961612 204.62158203 476.06494141 C205.98863528 473.08493769 207.35682635 470.1054608 208.72607422 467.12646484 C216.46935018 450.27832181 224.12074025 433.3948204 231.62039185 416.43673706 C236.71072125 404.93219686 241.91364324 393.48398238 247.1875 382.0625 C254.51262191 366.19362796 261.65605238 350.24982908 268.722229 334.26417542 C271.01118839 329.08657412 273.30929898 323.91312008 275.61328125 318.7421875 C290.71639734 284.84115737 305.64392602 250.8682028 320.20239258 216.72935486 C322.5712657 211.1745877 324.94675486 205.62270914 327.32705688 200.0728302 C336.70421422 178.20248636 345.927626 156.27442946 354.9375 134.25 C355.38204529 133.1660495 355.82659058 132.082099 356.28460693 130.96530151 C357.53234765 127.91991448 358.77498283 124.87250341 360.015625 121.82421875 C360.57653336 120.45592926 360.57653336 120.45592926 361.14877319 119.05999756 C361.65375839 117.81346405 361.65375839 117.81346405 362.16894531 116.54174805 C362.46391907 115.81747116 362.75889282 115.09319427 363.06280518 114.3469696 C363.7976373 112.56299685 363.7976373 112.56299685 363.6875 110.5625 C353.21753788 109.21147999 342.74718921 107.86349518 332.27640057 106.51889515 C327.40894427 105.89375733 322.54160322 105.26775496 317.67456055 104.6394043 C297.21918198 101.99920265 276.76085262 99.42088432 256.26953125 97.07421875 C241.31168195 95.36095165 226.37055526 93.54264334 211.4375 91.625 C210.46248346 91.49982687 209.48746693 91.37465374 208.48290443 91.24568748 C200.55753998 90.22717539 192.63300456 89.20227044 184.70849609 88.17712402 C177.78521209 87.28177392 170.861611 86.3889332 163.9375 85.5 C162.96204224 85.37472931 161.98658447 85.24945862 160.98156738 85.12039185 C147.06088252 83.3364458 133.13089662 81.65858948 119.1875 80.0625 C104.25693213 78.35340981 89.34319344 76.5392259 74.4375 74.625 C73.4623645 74.49980988 72.487229 74.37461975 71.48254395 74.24563599 C63.55729967 73.22714088 55.6328842 72.20225487 47.70849609 71.17712402 C40.78521206 70.28177392 33.86160222 69.38900164 26.9375 68.5 C25.97186693 68.3759548 25.00623386 68.2519096 24.01133919 68.12410545 C7.72762461 66.03666399 -8.57039285 64.09075643 -24.88244629 62.23815918 C-38.87999931 60.64472818 -52.83686568 58.818503 -66.78686523 56.8503418 C-69.55121478 56.48700994 -69.55121478 56.48700994 -73.3125 56.5625 Z " fill="#1A1A1A" transform="translate(440.3125,153.4375)"/>
<path d="M0 0 C9.2498812 0.92582471 18.44607429 2.97044765 27.5625 4.75 C28.23583374 4.88071899 28.90916748 5.01143799 29.60290527 5.14611816 C38.67596941 6.9091608 47.7204457 8.77476329 56.75 10.75 C70.292233 13.71214307 83.89330958 16.35326795 97.5 19 C111.83110252 21.78789544 126.14299017 24.60549025 140.40234375 27.7421875 C152.58158947 30.39435901 164.82484362 32.72087899 177.0609436 35.09353638 C189.45471352 37.49868001 201.81692958 39.98337039 214.1484375 42.69140625 C225.39785356 45.1363506 236.69896814 47.30865825 248 49.5 C260.25316614 51.87605585 272.49689975 54.2559919 284.6875 56.9375 C300.13130402 60.33148874 315.66008572 63.30034079 331.18237305 66.31030273 C342.47555391 68.50339593 353.75087304 70.76153925 365.00938416 73.12637329 C372.10880544 74.61468947 379.21670796 76.05458026 386.33203125 77.46484375 C387.35182068 77.66699997 388.37161011 77.86915619 389.42230225 78.07743835 C391.49621106 78.48829611 393.57014513 78.89902636 395.644104 79.30963135 C414.15274142 82.97741569 432.60976708 86.77526016 451 91 C444.23730213 106.36026132 436.98181712 121.44757184 429.5625 136.5 C428.48343654 138.69647341 427.4046595 140.89308755 426.32617188 143.08984375 C423.22702589 149.39797707 420.11568243 155.70002101 417 162 C416.51941132 162.9734436 416.03882263 163.94688721 415.54367065 164.9498291 C414.18863609 167.69214772 412.8294586 170.43236817 411.46875 173.171875 C411.07422134 173.97105347 410.67969269 174.77023193 410.27320862 175.59362793 C403.3974387 189.39026573 395.0478944 201.4852887 380 207 C361.17183924 212.08002917 344.56874517 209.41981815 325.95083618 204.54034424 C319.21284555 202.77492178 312.43399605 201.20140183 305.64645386 199.6394043 C302.55818911 198.92698317 299.4727162 198.20263761 296.38671875 197.48046875 C292.08501458 196.47883881 287.77965172 195.49950591 283.46617126 194.55007935 C273.89412338 192.41503467 264.34935258 190.15428121 254.796875 187.93359375 C252.32812969 187.36000585 249.85937955 186.78643875 247.390625 186.21289062 C243.55724426 185.32222519 239.72389366 184.43143087 235.890625 183.5402832 C232.15113272 182.67099434 228.41151422 181.80225023 224.671875 180.93359375 C222.96532745 180.53665565 222.96532745 180.53665565 221.2243042 180.13169861 C215.87106297 178.88866234 210.5150326 177.66338769 205.14862061 176.4785614 C201.24423025 175.60893811 197.34907025 174.6995451 193.453125 173.79296875 C192.56123474 173.58569656 191.66934448 173.37842438 190.75042725 173.16487122 C188.86790936 172.72724067 186.98544351 172.28938622 185.10302734 171.85131836 C182.299323 171.19897606 179.49537716 170.54767981 176.69140625 169.89648438 C166.6337965 167.55848075 156.58279623 165.19458354 146.53912354 162.79740906 C139.05873684 161.01206571 131.57359192 159.24750529 124.0866394 157.4899292 C106.07102543 153.2599816 88.06679763 148.98417168 70.07446289 144.65625 C63.6246886 143.10593995 57.17296978 141.56410998 50.7195282 140.02914429 C46.6330764 139.05701638 42.54699064 138.08335414 38.46090698 137.10968018 C36.42862861 136.62584361 34.39618227 136.14271194 32.36355591 135.66033936 C20.86302261 132.93074747 9.39589283 130.14274051 -2 127 C-3.16176758 126.68240723 -4.32353516 126.36481445 -5.52050781 126.03759766 C-8.95742876 125.08748038 -12.38538201 124.10982675 -15.8125 123.125 C-16.94880859 122.81175781 -18.08511719 122.49851562 -19.25585938 122.17578125 C-28.99805281 119.35700251 -38.2060173 115.69097406 -44 107 C-47.25722994 100.02022155 -46.7530058 93.44001838 -44.25 86.3125 C-41.30483995 79.15759142 -37.54199966 72.46583693 -33.7902832 65.70800781 C-25.51914849 50.80211847 -18.12357224 35.4519823 -10.87866211 20.02563477 C-2.67971704 2.67971704 -2.67971704 2.67971704 0 0 Z " fill="#919191" transform="translate(116,705)"/>
<path d="M0 0 C11.24819374 11.11790579 16.25170208 23.84374674 16.3984375 39.3125 C16.3934945 56.00005498 10.90362613 67.55205967 3.40942383 82.22192383 C-0.38624066 89.67687102 -3.64646922 96.94218842 -5.9765625 105 C-6.27949219 106.02222656 -6.58242188 107.04445313 -6.89453125 108.09765625 C-8.79883811 115.31256533 -9.3943934 122.29949404 -9.42285156 129.73339844 C-9.57232672 136.33668334 -12.04235998 139.8178228 -16.4140625 144.75 C-21.40782181 149.13476427 -26.09578751 149.39577853 -32.51660156 149.28466797 C-38.94157761 148.75605365 -45.12112771 147.13967954 -51.3515625 145.5625 C-53.9834017 144.91395102 -56.61680805 144.27195665 -59.25 143.62890625 C-60.39903809 143.34088135 -61.54807617 143.05285645 -62.73193359 142.75610352 C-65.81838827 142.03685971 -68.82674785 141.35924682 -71.9765625 141 C-74.03717209 142.40065477 -74.03717209 142.40065477 -75.6640625 144.5625 C-80.13072501 149.46639819 -85.08231468 152.09387163 -90.9765625 155 C-91.9871875 155.5775 -92.9978125 156.155 -94.0390625 156.75 C-104.07407878 161.02021969 -116.65881129 161.71296237 -126.9765625 158 C-135.31074567 154.14955671 -140.7602482 149.23856106 -144.3515625 140.75 C-145.37247275 134.62453852 -145.96106521 127.95350813 -143.9765625 122 C-145.10835938 121.88269531 -146.24015625 121.76539063 -147.40625 121.64453125 C-152.09227338 121.05646106 -156.55253171 119.93345756 -161.1015625 118.6875 C-161.92543457 118.46312256 -162.74930664 118.23874512 -163.59814453 118.00756836 C-165.26575334 117.55260433 -166.93291642 117.09600309 -168.59960938 116.63769531 C-170.77579449 116.05386258 -172.95672549 115.51407431 -175.1484375 114.9921875 C-185.23741662 112.45930034 -185.23741662 112.45930034 -188.3515625 109.25 C-190.35929766 105.23452969 -190.9048724 102.3940002 -189.9765625 98 C-187.24170093 92.4163243 -182.66883726 88.90595549 -177.9765625 85 C-160.80021278 70.31013138 -149.01347304 52.88288392 -137.7265625 33.4375 C-122.98331101 8.67915348 -98.06068341 -6.29269505 -70.9765625 -14 C-70.0484375 -14.268125 -69.1203125 -14.53625 -68.1640625 -14.8125 C-45.1035638 -20.13415355 -18.33810684 -15.2703938 0 0 Z " fill="#010101" transform="translate(536.9765625,432)"/>
<path d="M0 0 C6.64400648 0.89246173 13.29870714 1.69114118 19.9552002 2.48400879 C23.30597051 2.88404333 26.6558623 3.29130425 30.00585938 3.69775391 C31.33007378 3.85810879 32.65429253 4.01842781 33.97851562 4.17871094 C41.50156963 5.08956881 49.02444881 6.00187 56.54736328 6.91387939 C58.61686095 7.1647627 60.68635972 7.41563695 62.75585938 7.66650391 C63.4380957 7.74920532 64.12033203 7.83190674 64.82324219 7.91711426 C68.86772168 8.40734694 72.91223811 8.89727347 76.95678711 9.38693237 C91.91860346 11.19831978 106.87968981 13.01555418 121.83978271 14.84112549 C124.47341246 15.16245162 127.10706357 15.48360199 129.74072266 15.8046875 C130.60341766 15.90986694 131.46611267 16.01504639 132.35494995 16.12341309 C134.08047412 16.33378696 135.80599902 16.54415484 137.53152466 16.7545166 C142.21713929 17.32587951 146.90260505 17.89843875 151.58792114 18.47224426 C155.00835483 18.89092207 158.42893878 19.30836018 161.84960938 19.72509766 C162.52014343 19.8068222 163.19067749 19.88854675 163.88153076 19.9727478 C171.87902506 20.94574064 179.87933813 21.8835226 187.88592529 22.77929688 C207.94963843 25.02422133 227.97498181 27.53435731 247.99853516 30.11303711 C259.16090333 31.54956925 270.32503083 32.96727398 281.49804688 34.31884766 C282.99913498 34.50182152 282.99913498 34.50182152 284.5305481 34.68849182 C290.05907771 35.35150156 295.58653921 35.92517857 301.1348877 36.39533997 C310.10613821 37.18044725 316.84130088 38.45717474 324.03710938 44.03759766 C327.56907186 49.00027699 326.8792983 55.90515368 325.97460938 61.66259766 C324.27984398 68.01049034 321.56734464 74.01688355 318.97460938 80.03759766 C318.29786823 81.65905127 317.62337235 83.28144388 316.95117188 84.90478516 C315.3179547 88.83534186 313.65504509 92.75200923 311.97460938 96.66259766 C311.41896962 96.59321078 310.86332987 96.52382391 310.29085255 96.4523344 C296.62001906 94.74537081 282.9487559 93.04188444 269.27705097 91.34191418 C262.66488502 90.51968135 256.05286553 89.69630785 249.44116211 88.87036133 C243.03530931 88.07017288 236.62908532 87.27301587 230.2226162 86.47777748 C227.80425333 86.17707952 225.38601575 85.87537171 222.9679203 85.57253075 C210.23867471 83.97904157 197.50879756 82.48416041 184.74462891 81.19750977 C169.88836634 79.69647032 155.07537329 77.88661319 140.2616055 76.02007627 C136.52313923 75.54968469 132.78423532 75.08279352 129.0453949 74.61538696 C122.73288202 73.82574926 116.42066155 73.03381004 110.10864258 72.24023438 C103.80127058 71.44725216 97.49367483 70.65608831 91.18579102 69.8671875 C90.41870827 69.77125138 89.65162552 69.67531526 88.86129785 69.57647198 C88.09493123 69.48062575 87.32856461 69.38477952 86.53897476 69.28602886 C51.83356834 64.94545377 17.13683556 60.54101012 -17.55177516 56.06822532 C-40.33384807 53.13086897 -63.12163925 50.24251875 -85.91687012 47.40899658 C-90.27999595 46.86631337 -94.64291476 46.3219699 -99.00585938 45.77783203 C-107.34551937 44.73794142 -115.68537497 43.69963201 -124.02539062 42.66259766 C-123.06858592 40.72889916 -122.10948797 38.79633525 -121.14941406 36.86425781 C-120.34863434 35.24978256 -120.34863434 35.24978256 -119.53167725 33.60269165 C-110.39887876 15.77654514 -95.55584927 4.84824492 -77.04663086 -1.70825195 C-52.77622839 -9.26288744 -24.60350553 -3.31931155 0 0 Z " fill="#939393" transform="translate(494.025390625,163.33740234375)"/>
<path d="M0 0 C1.32 0.33 2.64 0.66 4 1 C2.50140387 5.52118832 -0.05716249 8.90845156 -2.9375 12.625 C-24.13735334 40.79640451 -48.08171129 84.81071467 -45 121 C-43.84581291 128.067305 -41.94308004 134.0173958 -38 140 C-37.78085937 139.29875 -37.56171875 138.5975 -37.3359375 137.875 C-33.46996461 126.30851201 -27.99324029 119.49662015 -17 114 C-9.55524661 113.31088019 -4.0116266 113.36603783 2 118 C7.78392534 124.25289225 8.50978882 129.10905764 8.37890625 137.51171875 C7.67488117 143.9931043 4.67071234 147.29131692 0.25 151.8125 C-6.54960541 156.38915749 -13.83852419 158.17654052 -22 157 C-25.45854114 155.90708208 -28.72746447 154.55967651 -32 153 C-31.64101113 158.95426373 -30.91169443 164.67282366 -29.625 170.5 C-22.97886838 202.48655464 -21.49487807 235.85120289 -38 265 C-40.1279514 268.21354286 -42.43328511 271.12772381 -45 274 C-45.92425781 275.04607422 -45.92425781 275.04607422 -46.8671875 276.11328125 C-55.4807364 285.29760749 -65.91418037 290.9857743 -78.5625 291.4375 C-86.22026877 291.22329668 -91.07135672 289.25457927 -96.4375 283.8125 C-99.60046626 279.86950682 -99.97759564 275.94016104 -100 271 C-98.68 271 -97.36 271 -96 271 C-95.62875 272.216875 -95.2575 273.43375 -94.875 274.6875 C-93.16322752 279.28483181 -91.01436253 281.24012576 -87 284 C-79.77470895 286.40843035 -72.35405505 285.99122377 -65.43945312 282.80029297 C-50.25780087 275.058304 -40.62158565 262.02749952 -35 246 C-27.0176464 219.66129149 -31.55487865 193.11514438 -35.99005127 166.61672974 C-36.8764141 161.19332673 -37.40296385 155.83007356 -37.5715332 150.33105469 C-38.25064562 146.63637357 -40.58324418 144.80000435 -43.14453125 142.20703125 C-51.67398422 132.0614714 -51.07235317 117.45422825 -50 105 C-49.0184366 96.80518288 -47.04825325 89.16984041 -44.375 81.375 C-44.02018555 80.33158447 -43.66537109 79.28816895 -43.29980469 78.21313477 C-40.06102783 68.87122511 -36.351507 59.87526116 -32 51 C-31.34257813 49.65639404 -31.34257813 49.65639404 -30.671875 48.28564453 C-22.14502184 31.04160667 -12.52849747 14.66571174 0 0 Z " fill="#222222" transform="translate(864,498)"/>
<path d="M0 0 C0 0.99 0 1.98 0 3 C-0.75023437 3.32871094 -1.50046875 3.65742188 -2.2734375 3.99609375 C-17.50156845 11.07314705 -26.93991343 21.93594246 -32.85668945 37.62133789 C-38.39284574 53.98154862 -37.45715935 71.20483965 -37.5 88.25 C-37.6188491 135.36205556 -37.6188491 135.36205556 -46 153 C-46.38027344 153.81597656 -46.76054687 154.63195312 -47.15234375 155.47265625 C-50.67290697 162.38339146 -55.55343051 168.79419553 -62.125 173 C-65.02491909 175.01733502 -66.04130764 176.37957808 -67.875 179.3125 C-73.6226419 188.34874113 -81.37661719 192.7020569 -91 197 C-92.2375 197.55494141 -92.2375 197.55494141 -93.5 198.12109375 C-98.13499796 200.08029519 -102.75624522 201.48324254 -107.625 202.75 C-113.22904343 204.30122865 -118.2947649 206.34995436 -123.5 208.9375 C-124.48734131 209.42331543 -124.48734131 209.42331543 -125.49462891 209.91894531 C-133.70253907 214.14135427 -140.02266603 219.72710942 -143.3125 228.5 C-145.30583957 238.64791053 -142.23934141 246.91235213 -136.65234375 255.421875 C-135.42586222 257.20608561 -134.18745319 258.98215343 -132.9375 260.75 C-125.71629957 271.07877584 -121.83503708 278.02132863 -123 291 C-124.03005166 296.18737726 -126.98116312 299.52008387 -131.05078125 302.7109375 C-136.8783213 306.5648217 -143.05648126 308.0849248 -150 307 C-152.9849556 306.06215922 -155.54584503 304.95956761 -158 303 C-159 300.25 -159 300.25 -159 298 C-154.39726027 298.76712329 -154.39726027 298.76712329 -152.1875 300.0625 C-147.41792416 302.10660393 -142.51811662 301.37792041 -137.75 299.75 C-133.68371755 298.05172909 -131.30360462 295.82504647 -128.75 292.25 C-126.65032715 285.95098146 -128.06179094 280.57206036 -130.609375 274.6875 C-132.69907365 270.64898126 -135.24673174 266.97704796 -137.83203125 263.2421875 C-140.19977682 259.70123466 -142.34108866 256.08050737 -144.4375 252.375 C-144.77942383 251.77075195 -145.12134766 251.16650391 -145.47363281 250.54394531 C-149.73336863 242.96482228 -149.97531074 235.59840546 -149 227 C-147.86061241 223.47309898 -146.31837485 220.86791556 -144 218 C-142.86498047 216.53433594 -142.86498047 216.53433594 -141.70703125 215.0390625 C-132.79229666 204.47461437 -118.63847579 200.23559729 -106 196 C-93.18922915 191.61488015 -82.82142287 187.56046719 -73 178 C-73.70125 177.97421875 -74.4025 177.9484375 -75.125 177.921875 C-83.02141944 177.44980645 -89.40810683 176.17990202 -94.875 170.125 C-98.50228453 164.79075804 -100.05076391 159.40709703 -99 153 C-96.38512056 148.14379533 -93.34347171 143.78115724 -88 142 C-81.25113941 141.26877354 -75.48186063 141.75067763 -70 146 C-65.70638639 150.73326468 -63.01120536 154.73228318 -62.4375 161.125 C-62.31181641 162.49011719 -62.31181641 162.49011719 -62.18359375 163.8828125 C-62.12300781 164.58148437 -62.06242187 165.28015625 -62 166 C-54.3561393 158.11382671 -50.42532068 149.9633422 -47.25 139.5625 C-46.93361572 138.54361694 -46.93361572 138.54361694 -46.61083984 137.50415039 C-43.62004279 127.13940703 -43.85022882 116.33766045 -43.7890625 105.63671875 C-43.77605084 104.27349583 -43.76222974 102.91028042 -43.74765015 101.54707336 C-43.68685755 95.82091829 -43.63218775 90.09479373 -43.59863281 84.3684082 C-43.57743085 80.84121836 -43.5419454 77.31439898 -43.49787521 73.78742409 C-43.47726139 71.82814613 -43.47171885 69.86872752 -43.46670532 67.90934753 C-43.35000481 59.28177418 -42.10343792 51.35958746 -40 43 C-39.72048492 41.86999069 -39.44096985 40.73998138 -39.15298462 39.57572937 C-34.82812014 22.82500147 -24.65652354 9.93058267 -10 1 C-6.13414499 -0.79793851 -4.14206994 -1.18344855 0 0 Z " fill="#232323" transform="translate(202,384)"/>
<path d="M0 0 C-0.33 1.32 -0.66 2.64 -1 4 C-4.7315565 3.52363109 -8.24917457 2.9340719 -11.875 1.9375 C-31.10600675 -2.3324354 -50.48784903 3.0649257 -67 13 C-70.23788872 15.12088781 -73.14006262 17.39551334 -76 20 C-76.75667969 20.67675781 -77.51335937 21.35351562 -78.29296875 22.05078125 C-93.63356559 36.51770925 -103.19421715 58.22536014 -104.09790039 79.28106689 C-104.14398413 81.76440425 -104.16373357 84.24673815 -104.17578125 86.73046875 C-104.19898664 88.60482885 -104.22310426 90.47917784 -104.24804688 92.35351562 C-104.28300484 95.26480516 -104.31244529 98.17568512 -104.32592773 101.0871582 C-104.40973394 116.27413236 -104.97299543 132.04258049 -115.78125 143.96484375 C-122.10635314 149.90090284 -128.39101109 153.16240192 -137.125 153.5 C-143.4989399 153.24924856 -147.05234481 151.88610322 -151.68359375 147.3515625 C-156.26418823 142.32059781 -158.52431322 138.07100028 -158.3125 131.0546875 C-157.55682098 126.08609793 -154.9797335 122.90975254 -151.375 119.5625 C-146.77995643 117.43516501 -142.97691226 117.10608857 -138 118 C-134.82312077 119.24940507 -134.19986954 120.10543482 -132 123 C-131.09538138 127.63712067 -131.52162308 131.62114887 -133.0625 136.0625 C-135.80347764 138.80347764 -138.2243108 138.78628174 -142 139 C-141.67 137.35 -141.34 135.7 -141 134 C-140.01 133.67 -139.02 133.34 -138 133 C-137.27743171 128.51866426 -137.27743171 128.51866426 -137 124 C-143.90305081 123.37840644 -143.90305081 123.37840644 -150.125 126 C-152.48379257 129.77406811 -152.87664345 132.72230466 -152 137 C-150.6590411 140.58777832 -148.74515504 143.30000588 -145.9375 145.9375 C-139.56635064 148.24195828 -132.06534219 147.88354075 -125.84375 145.16796875 C-116.72306262 139.39024517 -112.88961457 129.17164026 -110.63330078 119.14038086 C-108.93059515 109.50616552 -109.55862175 99.39088771 -109.56420898 89.64355469 C-109.54516545 74.23098897 -108.2127148 60.93474802 -101.6875 46.75 C-101.23866455 45.75589111 -101.23866455 45.75589111 -100.78076172 44.74169922 C-91.38584066 24.45240606 -75.33052533 8.57512386 -54.5 0.1875 C-36.23866548 -6.27823567 -18.19049079 -7.63469504 0 0 Z " fill="#232323" transform="translate(425,111)"/>
<path d="M0 0 C4.87565911 0.33858744 8.17304384 4.43823107 11.578125 7.58203125 C14.40441399 10.22301622 14.40441399 10.22301622 18.03515625 10.99609375 C21.52466101 9.22706052 24.87910266 7.26756797 28.24609375 5.27734375 C31.11819771 3.94517638 32.88026665 3.73388844 36 4 C35.52733664 9.43562863 34.00813726 13.70632013 31.7421875 18.66796875 C30.85668864 21.45029937 30.75365178 22.36097118 32 25 C34.29480926 27.43443104 36.66662353 29.68516316 39.13867188 31.93359375 C40.49637781 33.21834301 41.75523967 34.60554032 43 36 C43 37.32 43 38.64 43 40 C36.4 40 29.8 40 23 40 C20.03 45.61 17.06 51.22 14 57 C13.01 57 12.02 57 11 57 C10.78065796 56.18994507 10.78065796 56.18994507 10.55688477 55.36352539 C9.89556445 52.92889078 9.22910312 50.49569321 8.5625 48.0625 C8.33240234 47.21236328 8.10230469 46.36222656 7.86523438 45.48632812 C7.53168945 44.27299805 7.53168945 44.27299805 7.19140625 43.03515625 C6.98717041 42.2862915 6.78293457 41.53742676 6.57250977 40.76586914 C6.14608201 38.99456078 6.14608201 38.99456078 5 38 C3.66369883 37.70569228 2.31580778 37.46338167 0.96484375 37.24609375 C0.15595703 37.11396484 -0.65292969 36.98183594 -1.48632812 36.84570312 C-2.33646484 36.71099609 -3.18660156 36.57628906 -4.0625 36.4375 C-5.34350586 36.22963867 -5.34350586 36.22963867 -6.65039062 36.01757812 C-8.76634451 35.67476995 -10.88310118 35.33692384 -13 35 C-13.33 33.68 -13.66 32.36 -14 31 C-9.05 27.7 -4.1 24.4 1 21 C0.7834375 18.834375 0.7834375 18.834375 0.5625 16.625 C0.47355469 15.72136719 0.38460937 14.81773438 0.29296875 13.88671875 C0.09859303 11.97146999 -0.10703392 10.05732776 -0.32421875 8.14453125 C-0.42347656 7.25121094 -0.52273438 6.35789062 -0.625 5.4375 C-0.72039063 4.61121094 -0.81578125 3.78492187 -0.9140625 2.93359375 C-0.94242188 2.29550781 -0.97078125 1.65742187 -1 1 C-0.67 0.67 -0.34 0.34 0 0 Z " fill="#1A1A1A" transform="translate(736,97)"/>
<path d="M0 0 C10.58436971 1.60689847 21.16245786 3.00506838 31.81713867 4.05981445 C37.04233695 4.62982815 41.31717271 5.23156936 45.8125 8.1875 C48.31281654 11.93797482 48.34853554 13.74606266 47.8125 18.1875 C45.9375 21.125 45.9375 21.125 42.8125 23.1875 C34.24737496 24.44634183 25.09814501 22.20521377 16.625 20.875 C13.59690273 20.4078378 10.56811762 19.94528236 7.5390625 19.484375 C6.41986671 19.3132444 6.41986671 19.3132444 5.27806091 19.13865662 C0.74255746 18.45310107 -3.79378769 17.85116967 -8.3515625 17.328125 C-9.4031958 17.20606689 -10.4548291 17.08400879 -11.53833008 16.95825195 C-13.45593701 16.74247968 -15.37506184 16.53964116 -17.2956543 16.35229492 C-22.37917167 15.77081052 -25.49094572 15.03162131 -29.1875 11.1875 C-30.63180855 8.29888291 -30.56438506 6.39102299 -30.1875 3.1875 C-24.47268054 -6.20113197 -9.14032063 -1.4404461 0 0 Z " fill="#191919" transform="translate(612.1875,198.8125)"/>
<path d="M0 0 C9.92307189 6.3432295 17.06450069 14.41970401 20 26 C21.78973817 39.48609753 19.78581869 51.6141044 11.8125 62.875 C7.85407395 67.55470108 3.22717291 70.85718264 -2 74 C-2.99386719 74.65355469 -2.99386719 74.65355469 -4.0078125 75.3203125 C-12.07610315 79.84488334 -23.25326558 79.23562101 -32.0703125 77.33984375 C-43.7478133 73.11178312 -50.80297338 64.65326096 -56.1328125 53.8203125 C-58.26843015 48.91016106 -58.65713772 44.56057223 -58.5625 39.25 C-58.55226807 38.37819092 -58.54203613 37.50638184 -58.53149414 36.6081543 C-58.157584 25.1398114 -54.19116777 15.1592334 -46 7 C-32.87847287 -4.28227034 -15.85581514 -8.31940918 0 0 Z M-35 5 C-35.69609375 5.43570313 -36.3921875 5.87140625 -37.109375 6.3203125 C-45.97682562 12.42085184 -51.75986776 21.48861028 -54 32 C-55.15909684 42.93357017 -52.14453936 53.08302631 -45.78125 62.02734375 C-42.68752675 65.45350656 -38.96187487 67.69833936 -35 70 C-33.515 70.99 -33.515 70.99 -32 72 C-21.76212949 74.72416381 -11.75493414 73.97683456 -2.58984375 68.69921875 C4.44093304 64.08626565 8.41695504 59.6691887 12 52 C12.79857422 50.41638672 12.79857422 50.41638672 13.61328125 48.80078125 C15.44636952 44.4572605 15.49579931 40.28755685 15.4375 35.625 C15.42992676 34.78155029 15.42235352 33.93810059 15.41455078 33.0690918 C15.25204947 26.95156985 14.51004438 22.14009596 11 17 C10.55269531 16.29746094 10.10539062 15.59492187 9.64453125 14.87109375 C4.52680121 7.42088621 -2.04083824 2.67340665 -11 1 C-19.76597666 0.21868469 -27.43221908 0.20309949 -35 5 Z " fill="#1E1E1E" transform="translate(325,772)"/>
<path d="M0 0 C11.40861319 8.51199425 15.94731028 25.59516091 18 39 C18.60447939 44.34060656 18.95806577 48.32338489 16.25 53.0625 C12.63131129 56.17859306 11.27953455 57.06618282 6.375 56.8125 C3 56 3 56 1 53 C0.82499659 51.10938938 0.73275084 49.2106536 0.6875 47.3125 C-0.15347135 34.711946 -4.20956795 24.13795319 -11.42578125 13.8671875 C-13.23867688 10.56528826 -13.51537603 8.71070742 -13 5 C-9.07052078 0.591316 -6.07755055 -1.38610802 0 0 Z " fill="#060606" transform="translate(569,417)"/>
<path d="M0 0 C1.59887177 3.30433499 0.96397516 5.49578918 -0.0625 8.9375 C-4.49635719 12.51034822 -8.90131772 14.00178314 -14.25 15.5625 C-28.08902448 19.91615756 -41.15499548 26.59694646 -52.34863281 35.88964844 C-56.75113358 39.35853952 -59.67808251 39.48382688 -65.0625 38.9375 C-67.125 37.25 -67.125 37.25 -68.0625 34.9375 C-67.57538328 29.47293603 -64.99851955 27.49944692 -60.96484375 24.109375 C-48.09558857 14.47908445 -33.12554341 6.9464691 -18.0625 1.4375 C-17.38074707 1.18202393 -16.69899414 0.92654785 -15.99658203 0.66333008 C-10.9325029 -1.0983849 -5.00565939 -2.57867302 0 0 Z " fill="#060606" transform="translate(468.0625,393.0625)"/>
<path d="M0 0 C4.33743097 2.34221272 7.25639316 4.91931893 10 9 C10.9483582 14.50884544 11.01433601 20.8344831 8.625 26 C4.37490492 30.85725152 -0.37819913 33.36631365 -6.74609375 34.48046875 C-13.8632532 34.85399343 -18.9877859 32.65167017 -25 29 C-25.33540633 20.61484178 -24.24137833 14.8429106 -19 8 C-13.65328414 2.89091595 -7.65426905 -1.13999752 0 0 Z " fill="#FBFBFB" transform="translate(857,616)"/>
<path d="M0 0 C0 1.32 0 2.64 0 4 C-8.99929989 7.60591561 -17.99934488 11.20996868 -27 14.8125 C-28.01615639 15.21921936 -28.01615639 15.21921936 -29.05284119 15.63415527 C-49.70478087 23.89952506 -70.36774392 32.13599672 -91.06347656 40.29125977 C-100.63610319 44.06617314 -110.19082394 47.87913153 -119.71875 51.765625 C-122.50711507 52.89852724 -125.29572457 54.03082621 -128.08435059 55.16308594 C-130.68369059 56.22296245 -133.27786554 57.29481718 -135.87207031 58.3671875 C-137.43009903 59.00058948 -138.98835381 59.63343577 -140.546875 60.265625 C-141.24856812 60.56035706 -141.95026123 60.85508911 -142.67321777 61.15875244 C-145.44342681 62.27040285 -147.46689229 63.07115141 -150.46582031 62.67089844 C-150.97209961 62.44950195 -151.47837891 62.22810547 -152 62 C-151.71766663 60.11280823 -151.71766663 60.11280823 -151 58 C-148.24153357 56.57039311 -145.63778221 55.43374572 -142.74609375 54.33984375 C-141.8802919 53.99806091 -141.01449005 53.65627808 -140.12245178 53.30413818 C-137.23294004 52.16737201 -134.33538777 51.05272186 -131.4375 49.9375 C-129.39262849 49.13735698 -127.34836712 48.33565309 -125.3046875 47.5324707 C-121.01967084 45.8506793 -116.73156919 44.17712803 -112.44091797 42.50976562 C-103.41927338 39.00039884 -94.42541885 35.42133044 -85.4286499 31.84881592 C-82.49018224 30.6836069 -79.5503022 29.52204123 -76.60986328 28.36181641 C-66.13747294 24.22932957 -55.67506737 20.07357263 -45.22688675 15.88020134 C-40.94884028 14.16451409 -36.66831133 12.45502399 -32.38818359 10.74453735 C-30.01797099 9.79528307 -27.64897484 8.84298534 -25.28125 7.88754272 C-21.98871718 6.55921736 -18.69214776 5.24142513 -15.39453125 3.92578125 C-14.4134993 3.52678619 -13.43246735 3.12779114 -12.42170715 2.71670532 C-11.51402084 2.3568454 -10.60633453 1.99698547 -9.67114258 1.6262207 C-8.88548416 1.31046585 -8.09982574 0.994711 -7.2903595 0.66938782 C-4.76175219 -0.06963107 -2.62075577 -0.12063587 0 0 Z " fill="#232323" transform="translate(1037,177)"/>
<path d="M0 0 C1.32 0.33 2.64 0.66 4 1 C5.48181006 4.23454807 6.12260457 7.53428806 7 11 C11.29 11 15.58 11 20 11 C20 12.32 20 13.64 20 15 C18.43359375 16.45703125 18.43359375 16.45703125 16.4375 17.8125 C14.48803354 19.29226756 14.48803354 19.29226756 13 21 C12.84516561 24.50260082 12.84516561 24.50260082 14 28 C14.33333333 30.33333333 14.66666667 32.66666667 15 35 C12.05560156 34.52889625 9.9920924 33.42920816 7.5 31.875 C4.3587571 29.83767389 4.3587571 29.83767389 1.9375 30 C-0.24542715 31.07924815 -0.24542715 31.07924815 -3.0625 33.0625 C-6 35 -6 35 -9 35 C-8.835 34.13117188 -8.67 33.26234375 -8.5 32.3671875 C-7.98590273 28.77653939 -7.65946206 25.61659909 -8 22 C-9.89334927 19.72711831 -11.60600163 18.61092539 -14.21484375 17.24609375 C-14.80394531 16.83488281 -15.39304688 16.42367188 -16 16 C-16 14.68 -16 13.36 -16 12 C-10.06 11.505 -10.06 11.505 -4 11 C-2.68 7.37 -1.36 3.74 0 0 Z " fill="#1F1F1F" transform="translate(159,315)"/>
<path d="M0 0 C3.59470303 1.45170699 6.5695997 2.93002067 9 6 C10.66428243 10.9928473 10.54888064 15.32107099 8.9375 20.25 C5.84080397 24.64531049 2.30718222 26.55819915 -2.9375 27.5625 C-7.25095434 26.77023288 -10.67088888 24.84923925 -14 22 C-16.65294144 17.8627762 -16.53786957 13.76398759 -16 9 C-13.16946746 1.92366865 -7.38598482 -0.9232481 0 0 Z " fill="#191919" transform="translate(553,185)"/>
<path d="M0 0 C3.67974629 2.28740985 6.34626069 4.51157551 8.3125 8.4375 C9.92577659 19.24905523 9.92577659 19.24905523 6.96484375 23.265625 C3.13495558 25.98185774 -1.18273297 25.89226696 -5.6875 25.4375 C-10.98822172 23.63525462 -15.00913388 20.36312537 -17.6875 15.4375 C-18.71536187 10.44614044 -18.48522562 6.74045185 -15.8125 2.375 C-11.28707659 -1.75112135 -5.76198843 -1.20599758 0 0 Z " fill="#FAFAFA" transform="translate(125.6875,531.5625)"/>
<path d="M0 0 C3.40383727 0.5341581 4.83829953 0.86590693 7.5625 3.125 C8.366875 3.74375 9.17125 4.3625 10 5 C13.03964339 4.59093826 15.54426339 3.33546392 18.25 1.9375 C18.95640625 1.57527344 19.6628125 1.21304687 20.390625 0.83984375 C20.92171875 0.56269531 21.4528125 0.28554688 22 0 C23 3 23 3 22 5.875 C20.89828038 9.31787382 20.63549187 10.67401144 22 14 C23.99665598 15.67067133 25.99651034 17.33752986 28 19 C28 20.32 28 21.64 28 23 C24.04 23.33 20.08 23.66 16 24 C14.02 28.455 14.02 28.455 12 33 C11.01 33 10.02 33 9 33 C8.01 29.37 7.02 25.74 6 22 C2.04 22 -1.92 22 -6 22 C-6 20.68 -6 19.36 -6 18 C-4.43359375 16.97265625 -4.43359375 16.97265625 -2.4375 16.0625 C-0.40038885 14.92306583 -0.40038885 14.92306583 1 13 C1.33498809 8.55870628 0.76237007 4.37561984 0 0 Z " fill="#202020" transform="translate(817,456)"/>
<path d="M0 0 C8.01855596 1.36128275 15.90984304 3.08247843 23.8125 5 C25.4512207 5.39058594 25.4512207 5.39058594 27.12304688 5.7890625 C32.15917799 7.00288351 37.12346658 8.22980986 42 10 C36.97376426 15.83691892 31.86128686 18.57791601 24.140625 19.421875 C17.48196361 19.75531565 10.96986219 19.90511361 5.484375 15.62109375 C1.87258408 11.67663787 0.13017715 7.82248007 -0.25 2.5 C-0.1675 1.675 -0.085 0.85 0 0 Z " fill="#F6F6F6" transform="translate(408,558)"/>
<path d="M0 0 C1.65 0.33 3.3 0.66 5 1 C-0.23675784 19.48267473 -12.61810357 33.46596328 -29 43 C-42.97791807 50.22667873 -56.47407412 52.58711484 -72 52 C-72.66 50.68 -73.32 49.36 -74 48 C-72.39401232 46.39401232 -70.58701538 46.76016952 -68.36328125 46.640625 C-56.76759075 45.90740804 -46.6340848 44.98472725 -36 40 C-35.030625 39.5565625 -34.06125 39.113125 -33.0625 38.65625 C-26.04267338 35.14633669 -20.54616733 30.50804934 -15 25 C-14.37351562 24.41992188 -13.74703125 23.83984375 -13.1015625 23.2421875 C-6.73190716 16.81488822 -3.57449075 8.17026458 0 0 Z " fill="#242424" transform="translate(569,932)"/>
<path d="M0 0 C2.125 0.375 2.125 0.375 4 1 C3.24739085 4.56027577 1.91594392 7.73593344 0.48046875 11.07421875 C0.22582855 11.66685516 -0.02881165 12.25949158 -0.29116821 12.87008667 C-1.12750959 14.81102748 -1.96945093 16.74946402 -2.8125 18.6875 C-3.10045441 19.35184052 -3.38840881 20.01618103 -3.68508911 20.70065308 C-9.06404201 33.09262647 -14.82359055 45.27279753 -20.74755859 57.4140625 C-23.2456843 62.57198598 -25.63400269 67.78027786 -28 73 C-29.32 73 -30.64 73 -32 73 C-32.46636804 68.32752022 -30.8429659 65.18517007 -28.6875 61.1875 C-25.17666187 54.41096955 -21.86892197 47.56242459 -18.6875 40.625 C-18.22956055 39.62670166 -17.77162109 38.62840332 -17.29980469 37.59985352 C-13.18471948 28.54766416 -9.31354155 19.39615098 -5.52807617 10.20166016 C-5.09470947 9.15800293 -4.66134277 8.1143457 -4.21484375 7.0390625 C-3.83448975 6.11303223 -3.45413574 5.18700195 -3.06225586 4.23291016 C-2 2 -2 2 0 0 Z " fill="#8C8C8C" transform="translate(765,401)"/>
<path d="M0 0 C0.99 0.33 1.98 0.66 3 1 C2.48450422 5.85465638 1.51624996 9.58445635 -0.68383789 13.93530273 C-1.52459618 15.61625282 -1.52459618 15.61625282 -2.38233948 17.3311615 C-2.99556273 18.5320824 -3.60900675 19.73289059 -4.22265625 20.93359375 C-4.84986943 22.17868228 -5.47619356 23.42421903 -6.10166931 24.67018127 C-7.74174969 27.93134906 -9.3937566 31.18632738 -11.04840088 34.44012451 C-12.73814157 37.76824754 -14.41642217 41.10213755 -16.09570312 44.43554688 C-19.38600508 50.96269899 -22.68893994 57.48334897 -26 64 C-27.32 64 -28.64 64 -30 64 C-29.4235079 58.78721227 -27.71210883 54.76783398 -25.4375 50.125 C-25.07817383 49.37742432 -24.71884766 48.62984863 -24.34863281 47.85961914 C-23.24253972 45.5679778 -22.1241303 43.28284152 -21 41 C-20.68111816 40.35240723 -20.36223633 39.70481445 -20.03369141 39.03759766 C-18.46749773 35.86948281 -16.88505411 32.70986201 -15.29296875 29.5546875 C-13.46975783 25.94146021 -11.6645947 22.31950557 -9.86328125 18.6953125 C-9.31833008 17.60033447 -8.77337891 16.50535645 -8.21191406 15.37719727 C-7.12267993 13.1882494 -6.03476305 10.99864552 -4.94824219 8.80834961 C-4.45098633 7.8106958 -3.95373047 6.81304199 -3.44140625 5.78515625 C-2.77153687 4.43756226 -2.77153687 4.43756226 -2.08813477 3.06274414 C-1 1 -1 1 0 0 Z " fill="#8C8C8C" transform="translate(802,319)"/>
<path d="M0 0 C2.0625 0.4375 2.0625 0.4375 4 1 C4.00257812 2.02738281 4.00515625 3.05476562 4.0078125 4.11328125 C4.21641508 14.2562751 5.63832605 22.02448955 12.671875 29.86328125 C20.10785386 36.7364452 28.13425441 38.75033889 38 40 C38 41.32 38 42.64 38 44 C27.58910334 44.9222251 18.83564171 42.41229201 10.625 35.8125 C3.82246046 29.30757156 -0.7551698 20.94209524 -1.14453125 11.4921875 C-1.1835357 7.9817866 -1.20203164 4.50501399 -1 1 C-0.67 0.67 -0.34 0.34 0 0 Z " fill="#242424" transform="translate(44,852)"/>
<path d="M0 0 C1.32 0.33 2.64 0.66 4 1 C4.99 4.63 5.98 8.26 7 12 C13.53388752 10.14229574 13.53388752 10.14229574 19.875 7.75 C22.38951946 6.86252255 23.58534671 6.87891097 26 8 C26.495 9.485 26.495 9.485 27 11 C24.56495491 12.0063655 22.12729136 13.00526413 19.6875 14 C18.99720703 14.28617188 18.30691406 14.57234375 17.59570312 14.8671875 C14.58454326 16.08910744 12.28113016 17 9 17 C9.2475 17.7734375 9.2475 17.7734375 9.5 18.5625 C10.15049 21.73363876 10.0620734 24.77218334 10 28 C8.68 28 7.36 28 6 28 C5.34 25.69 4.68 23.38 4 21 C0.80005798 21.4848397 -1.5851095 22.26689205 -4.5625 23.625 C-8 25 -8 25 -10.4375 24.6875 C-10.953125 24.460625 -11.46875 24.23375 -12 24 C-11.87890625 22.171875 -11.87890625 22.171875 -11 20 C-8.27734375 18.515625 -8.27734375 18.515625 -4.9375 17.25 C-3.83277344 16.82203125 -2.72804688 16.3940625 -1.58984375 15.953125 C-0.73519531 15.63859375 0.11945312 15.3240625 1 15 C0.53663297 11.16067316 0.06688395 7.36786172 -0.625 3.5625 C-0.74875 2.716875 -0.8725 1.87125 -1 1 C-0.67 0.67 -0.34 0.34 0 0 Z " fill="#252525" transform="translate(899,562)"/>
<path d="M0 0 C1.67542976 0.28604898 3.34385343 0.61781233 5 1 C5 2.98 5 4.96 5 7 C5.67546875 6.69964844 6.3509375 6.39929688 7.046875 6.08984375 C7.93890625 5.70957031 8.8309375 5.32929688 9.75 4.9375 C10.63171875 4.55464844 11.5134375 4.17179687 12.421875 3.77734375 C15.15256309 2.95399992 16.36901347 3.0226008 19 4 C18.81640625 6.35546875 18.81640625 6.35546875 18 9 C14.81857013 10.89798124 11.52945426 11.79373082 8 13 C8 17.29 8 21.58 8 26 C6.35 26 4.7 26 3 26 C2.67 22.7 2.34 19.4 2 16 C1.113125 16.350625 0.22625 16.70125 -0.6875 17.0625 C-4.06203126 18.01755602 -5.69686152 17.97151132 -9 17 C-9 15.68 -9 14.36 -9 13 C-6.03 12.01 -3.06 11.02 0 10 C-0.185625 8.535625 -0.37125 7.07125 -0.5625 5.5625 C-0.75462854 4.04681929 -0.91062197 2.52519276 -1 1 C-0.67 0.67 -0.34 0.34 0 0 Z " fill="#212121" transform="translate(129,435)"/>
<path d="M0 0 C3.69230769 0.69230769 3.69230769 0.69230769 5 2 C5.04063832 3.66617115 5.042721 5.33388095 5 7 C6.216875 6.505 7.43375 6.01 8.6875 5.5 C11.92486738 4.27520559 14.50099357 3.67196815 18 4 C18.33 5.32 18.66 6.64 19 8 C15.37 9.65 11.74 11.3 8 13 C8 17.29 8 21.58 8 26 C6.68 26.33 5.36 26.66 4 27 C1.60236815 24.60236815 1.65719414 23.66726502 1.375 20.375 C1.30023438 19.55773437 1.22546875 18.74046875 1.1484375 17.8984375 C1.07496094 16.95871094 1.07496094 16.95871094 1 16 C0.278125 16.33 -0.44375 16.66 -1.1875 17 C-4.01697427 18.00603529 -6.02895466 18.16977402 -9 18 C-9.33 16.68 -9.66 15.36 -10 14 C-8.71086513 13.32845067 -7.41859796 12.66291141 -6.125 12 C-5.40570313 11.62875 -4.68640625 11.2575 -3.9453125 10.875 C-2 10 -2 10 0 10 C-0.08378906 9.36191406 -0.16757812 8.72382812 -0.25390625 8.06640625 C-0.35574219 7.24011719 -0.45757812 6.41382812 -0.5625 5.5625 C-0.66691406 4.73878906 -0.77132813 3.91507812 -0.87890625 3.06640625 C-0.91886719 2.38449219 -0.95882813 1.70257813 -1 1 C-0.67 0.67 -0.34 0.34 0 0 Z " fill="#232323" transform="translate(305,106)"/>
<path d="M0 0 C1.8125 0.5 1.8125 0.5 4 2 C5.26152609 4.5863924 6.15643045 7.25200829 7 10 C7.66 9.855625 8.32 9.71125 9 9.5625 C12.65599551 8.87700084 16.30622195 8.43824485 20 8 C20 9.32 20 10.64 20 12 C16.7 13.32 13.4 14.64 10 16 C10.66 17.65 11.32 19.3 12 21 C12.125 23.8125 12.125 23.8125 12 26 C10.68 26 9.36 26 8 26 C6.515 22.535 6.515 22.535 5 19 C1.0617104 19.61535775 -2.37416055 20.8637615 -6.03515625 22.37890625 C-8 23 -8 23 -12 23 C-11.8046875 20.64453125 -11.8046875 20.64453125 -11 18 C-8.8203125 16.63671875 -8.8203125 16.63671875 -6.125 15.6875 C-5.24070312 15.36136719 -4.35640625 15.03523437 -3.4453125 14.69921875 C-1 14 -1 14 2 14 C1.77183594 13.40832031 1.54367187 12.81664062 1.30859375 12.20703125 C-1.54657293 4.35852373 -1.54657293 4.35852373 0 0 Z " fill="#222222" transform="translate(772,695)"/>
<path d="M0 0 C4.53846559 0.62479832 8.28316171 2.43089365 12.3125 4.5 C13.00819092 4.85384766 13.70388184 5.20769531 14.4206543 5.57226562 C26.19609319 11.61542986 37.52616403 17.85614873 48 26 C47.67 27.32 47.34 28.64 47 30 C43.09980724 28.57916475 39.80823242 26.72995741 36.3125 24.5 C24.28721504 16.95493027 11.78449607 10.16663928 -1 4 C-0.67 2.68 -0.34 1.36 0 0 Z " fill="#222222" transform="translate(874,310)"/>
<path d="M0 0 C1.32 0 2.64 0 4 0 C3.45931314 4.86297699 2.01631487 8.26382226 -0.38671875 12.5078125 C-0.72621048 13.11454803 -1.06570221 13.72128357 -1.41548157 14.34640503 C-2.49780482 16.27744568 -3.5919501 18.20143788 -4.6875 20.125 C-6.11217117 22.64614246 -7.53174047 25.1701199 -8.94921875 27.6953125 C-9.29387177 28.3077179 -9.63852478 28.92012329 -9.99362183 29.55108643 C-13.19368844 35.27175802 -16.13761445 41.10262274 -19 47 C-20.32 46.67 -21.64 46.34 -23 46 C-22.45861286 41.16464732 -20.9272697 37.41856495 -18.61328125 33.203125 C-18.27378952 32.56945007 -17.93429779 31.93577515 -17.58451843 31.28289795 C-16.86641579 29.94620806 -16.14423249 28.61170327 -15.41821289 27.27929688 C-14.32558901 25.27402205 -13.24469197 23.26280561 -12.16601562 21.25 C-10.4535059 18.06439805 -8.71523462 14.89410929 -6.95855713 11.73266602 C-6.05564466 10.10058202 -5.16863994 8.45972643 -4.28271484 6.81835938 C-3.77047363 5.90376953 -3.25823242 4.98917969 -2.73046875 4.046875 C-2.29500732 3.25635742 -1.8595459 2.46583984 -1.41088867 1.65136719 C-0.94529541 1.10641602 -0.47970215 0.56146484 0 0 Z " fill="#222222" transform="translate(874,133)"/>
<path d="M0 0 C0.99 0.33 1.98 0.66 3 1 C2.49477778 5.37859255 -0.17827222 7.81651224 -3 11 C-2.154375 11.7425 -1.30875 12.485 -0.4375 13.25 C0.366875 14.1575 1.17125 15.065 2 16 C1.8125 18.3125 1.8125 18.3125 1 20 C-1.46800047 18.84826645 -3.04783565 17.95216435 -5 16 C-6.99108683 15.78447645 -6.99108683 15.78447645 -9 17 C-10.5821737 19.24948505 -11.74580667 21.53640595 -13 24 C-14.32 23.67 -15.64 23.34 -17 23 C-16.5239624 20.024765 -15.40844248 17.99869782 -13.8125 15.5 C-12.9153125 13.7675 -12.9153125 13.7675 -12 12 C-12.6501992 9.78265886 -12.6501992 9.78265886 -14 8 C-14 6.68 -14 5.36 -14 4 C-12.8553125 4.2475 -12.8553125 4.2475 -11.6875 4.5 C-8.96403764 5.09145396 -8.96403764 5.09145396 -6 5 C-5.01 4.154375 -4.02 3.30875 -3 2.4375 C-2.01 1.633125 -1.02 0.82875 0 0 Z " fill="#222222" transform="translate(238,191)"/>
<path d="M0 0 C1.65 0.33 3.3 0.66 5 1 C5 2.98 5 4.96 5 7 C7.31 7 9.62 7 12 7 C12.5625 8.9375 12.5625 8.9375 13 11 C12 12 12 12 8.4375 12.0625 C7.303125 12.041875 6.16875 12.02125 5 12 C5 14.97 5 17.94 5 21 C3.68 20.67 2.36 20.34 1 20 C1 17.69 1 15.38 1 13 C-2.3 13.33 -5.6 13.66 -9 14 C-8.67 12.35 -8.34 10.7 -8 9 C-5.36 9 -2.72 9 0 9 C0 6.03 0 3.06 0 0 Z " fill="#212121" transform="translate(817,107)"/>
<path d="M0 0 C3 1 3 1 4.16674805 2.87011719 C4.70875854 4.0713623 4.70875854 4.0713623 5.26171875 5.296875 C5.65810547 6.1734375 6.05449219 7.05 6.46289062 7.953125 C6.86701172 8.87609375 7.27113281 9.7990625 7.6875 10.75 C8.10322266 11.6575 8.51894531 12.565 8.94726562 13.5 C10.90653721 17.90112237 12.25891031 21.11272862 12 26 C10.68 26 9.36 26 8 26 C6.48454537 22.7778676 4.99044289 19.54626873 3.5 16.3125 C3.07074219 15.40048828 2.64148438 14.48847656 2.19921875 13.54882812 C1.79316406 12.66259766 1.38710937 11.77636719 0.96875 10.86328125 C0.59169922 10.05157471 0.21464844 9.23986816 -0.17382812 8.40356445 C-1.07864009 5.77121404 -1.22710889 3.76445308 -1 1 C-0.67 0.67 -0.34 0.34 0 0 Z " fill="#242424" transform="translate(238,551)"/>
<path d="M0 0 C0 0.99 0 1.98 0 3 C-3.24442479 4.51227734 -6.49637402 6.00763437 -9.75 7.5 C-10.67039063 7.92925781 -11.59078125 8.35851562 -12.5390625 8.80078125 C-13.87324219 9.40986328 -13.87324219 9.40986328 -15.234375 10.03125 C-16.05131836 10.40830078 -16.86826172 10.78535156 -17.70996094 11.17382812 C-20 12 -20 12 -24 12 C-24 10.68 -24 9.36 -24 8 C-20.75867915 6.46014937 -17.50576432 4.94654228 -14.25 3.4375 C-13.32960937 2.99986328 -12.40921875 2.56222656 -11.4609375 2.11132812 C-10.12675781 1.49741211 -10.12675781 1.49741211 -8.765625 0.87109375 C-7.94868164 0.48880615 -7.13173828 0.10651855 -6.29003906 -0.28735352 C-3.72806337 -1.08462506 -2.48870206 -0.90202956 0 0 Z " fill="#242424" transform="translate(228,632)"/>
<path d="M0 0 C0.99 0 1.98 0 3 0 C4.52070879 2.69719095 6.01262222 5.40930723 7.5 8.125 C8.14388672 9.26582031 8.14388672 9.26582031 8.80078125 10.4296875 C11.17073319 14.79340854 12.58773904 17.88993553 12 23 C9.50954232 22.63328265 8.32086658 22.39478254 6.70385742 20.40527344 C5.51653335 18.19372072 4.33366417 15.98326673 3.1875 13.75 C2.55811523 12.60337891 2.55811523 12.60337891 1.91601562 11.43359375 C-1.05924514 5.75756085 -1.05924514 5.75756085 -0.76171875 1.953125 C-0.51035156 1.30859375 -0.25898437 0.6640625 0 0 Z " fill="#262626" transform="translate(608,576)"/>
<path d="M0 0 C0.99 0 1.98 0 3 0 C4.54015031 3.07404893 6.05362087 6.16049712 7.5625 9.25 C8.21895508 10.55904297 8.21895508 10.55904297 8.88867188 11.89453125 C9.29794922 12.73886719 9.70722656 13.58320313 10.12890625 14.453125 C10.70233765 15.61569824 10.70233765 15.61569824 11.28735352 16.80175781 C12.10244103 19.31599145 11.88207936 20.54679315 11 23 C9.13598633 22.7434082 9.13598633 22.7434082 7 22 C5.7956543 20.29760742 5.7956543 20.29760742 4.82421875 18.10546875 C4.47166016 17.31462891 4.11910156 16.52378906 3.75585938 15.70898438 C3.40330078 14.87689453 3.05074219 14.04480469 2.6875 13.1875 C2.31560547 12.36701172 1.94371094 11.54652344 1.56054688 10.70117188 C-1.36647756 3.98046214 -1.36647756 3.98046214 0 0 Z " fill="#232323" transform="translate(324,364)"/>
<path d="M0 0 C2.57376269 0.35691049 3.6914798 0.59478031 5.29614258 2.70239258 C5.65861084 3.42579834 6.0210791 4.1492041 6.39453125 4.89453125 C6.79220703 5.68537109 7.18988281 6.47621094 7.59960938 7.29101562 C7.99986328 8.12310547 8.40011719 8.95519531 8.8125 9.8125 C9.44188477 11.04323242 9.44188477 11.04323242 10.08398438 12.29882812 C13.09947013 18.42418881 13.09947013 18.42418881 12.6081543 21.26831055 C12.40746338 21.83976807 12.20677246 22.41122559 12 23 C11.01 23 10.02 23 9 23 C7.29266954 19.92725154 5.61274352 16.84034212 3.9375 13.75 C3.45216797 12.87730469 2.96683594 12.00460937 2.46679688 11.10546875 C1.78520508 9.83896484 1.78520508 9.83896484 1.08984375 8.546875 C0.66566162 7.77182617 0.24147949 6.99677734 -0.19555664 6.19824219 C-1.12393019 3.66134523 -0.91790413 2.49749524 0 0 Z " fill="#202020" transform="translate(508,298)"/>
<path d="M0 0 C1.73828125 0.05078125 1.73828125 0.05078125 4 1 C5.88897717 3.0282566 7.53329082 4.98431685 9.1875 7.1875 C9.63802734 7.75275391 10.08855469 8.31800781 10.55273438 8.90039062 C13.33656444 12.5439943 14.63657333 15.30395736 15 20 C12.79296875 19.890625 12.79296875 19.890625 10 19 C8.20933345 16.92505414 6.77772288 15.03145437 5.3125 12.75 C4.92255859 12.17636719 4.53261719 11.60273437 4.13085938 11.01171875 C1.98692908 7.79399088 0.28217153 4.64767515 -1 1 C-0.67 0.67 -0.34 0.34 0 0 Z " fill="#222222" transform="translate(258,678)"/>
<path d="M0 0 C0.99 0 1.98 0 3 0 C3.98611151 2.53916175 4.96400876 5.0810023 5.9375 7.625 C6.21529297 8.33785156 6.49308594 9.05070313 6.77929688 9.78515625 C8.32728612 13.85095932 9.45835952 17.65316375 10 22 C8.68 22.33 7.36 22.66 6 23 C3.97491097 18.07605257 1.98841213 13.13587124 0.1875 8.125 C-0.19341797 7.07699219 -0.19341797 7.07699219 -0.58203125 6.0078125 C-1.06596359 3.68312819 -0.73623568 2.23374906 0 0 Z " fill="#262626" transform="translate(352,668)"/>
<path d="M0 0 C-0.01171875 2.2265625 -0.01171875 2.2265625 -1 5 C-3.40390707 6.86652675 -6.0639047 8.09087936 -8.8125 9.375 C-9.53759766 9.74238281 -10.26269531 10.10976563 -11.00976562 10.48828125 C-16.94385811 13.36574604 -16.94385811 13.36574604 -21 12 C-20.44431641 8.34768241 -20.44431641 8.34768241 -18.48120117 6.81152344 C-17.84158447 6.49731445 -17.20196777 6.18310547 -16.54296875 5.859375 C-15.84236328 5.51132812 -15.14175781 5.16328125 -14.41992188 4.8046875 C-13.31487305 4.28261719 -13.31487305 4.28261719 -12.1875 3.75 C-11.46240234 3.38648438 -10.73730469 3.02296875 -9.99023438 2.6484375 C-6.24206943 0.82407908 -4.30436267 0 0 0 Z " fill="#272727" transform="translate(621,304)"/>
<path d="M0 0 C0.99 0.33 1.98 0.66 3 1 C4.24227282 3.75666254 5.27949277 6.39972392 6.25 9.25 C6.53101563 10.01441406 6.81203125 10.77882812 7.1015625 11.56640625 C8.54933662 15.71621424 9.48930253 18.67063219 8 23 C7.01 23 6.02 23 5 23 C3.82538445 19.89878289 2.66169544 16.79357759 1.5 13.6875 C1.16613281 12.80642578 0.83226562 11.92535156 0.48828125 11.01757812 C0.17246094 10.17001953 -0.14335937 9.32246094 -0.46875 8.44921875 C-0.76201172 7.66893311 -1.05527344 6.88864746 -1.35742188 6.0847168 C-2 4 -2 4 -2 1 C-1.34 0.67 -0.68 0.34 0 0 Z " fill="#2A2A2A" transform="translate(391,245)"/>
<path d="M0 0 C1.796875 0.046875 1.796875 0.046875 4 1 C5.30069281 3.44625711 6.29890881 5.67331928 7.25 8.25 C7.518125 8.91902344 7.78625 9.58804687 8.0625 10.27734375 C9.48088672 13.96080723 10.33698149 17.04812615 10 21 C8.68 21 7.36 21 6 21 C4.79848104 18.25538312 3.61361897 15.50547873 2.4375 12.75 C2.09525391 11.97269531 1.75300781 11.19539063 1.40039062 10.39453125 C0.92182617 9.26337891 0.92182617 9.26337891 0.43359375 8.109375 C-0.01415405 7.07248535 -0.01415405 7.07248535 -0.47094727 6.01464844 C-1.09209599 3.64929576 -0.77451334 2.28986553 0 0 Z " fill="#242424" transform="translate(719,319)"/>
<path d="M0 0 C-1.23840764 3.79946833 -3.43099586 5.11473833 -6.90820312 6.88867188 C-7.53662109 7.19353516 -8.16503906 7.49839844 -8.8125 7.8125 C-9.73772461 8.29879883 -9.73772461 8.29879883 -10.68164062 8.79492188 C-13.65821897 10.27213982 -15.60947511 11.03982837 -18.94921875 10.69921875 C-19.62597656 10.46847656 -20.30273438 10.23773438 -21 10 C-19.76159236 6.20053167 -17.56900414 4.88526167 -14.09179688 3.11132812 C-13.14916992 2.6540332 -13.14916992 2.6540332 -12.1875 2.1875 C-11.57068359 1.86330078 -10.95386719 1.53910156 -10.31835938 1.20507812 C-6.49341265 -0.69316855 -4.0911753 -1.39489596 0 0 Z " fill="#272727" transform="translate(421,313)"/>
<path d="M0 0 C0.99 0 1.98 0 3 0 C3.98766013 2.20486819 4.96518516 4.41337311 5.9375 6.625 C6.21529297 7.24246094 6.49308594 7.85992187 6.77929688 8.49609375 C8.45160411 12.32426694 9.4961308 15.85424076 10 20 C8.68 20.33 7.36 20.66 6 21 C5.20788071 19.10435574 4.41632424 17.20847629 3.625 15.3125 C3.18414063 14.25675781 2.74328125 13.20101563 2.2890625 12.11328125 C1.65097656 10.57220703 1.65097656 10.57220703 1 9 C0.4121875 7.63875 0.4121875 7.63875 -0.1875 6.25 C-1.11228113 3.68906763 -0.93179527 2.51584723 0 0 Z " fill="#292929" transform="translate(682,454)"/>
<path d="M0 0 C1.76171875 0.109375 1.76171875 0.109375 4 1 C5.95703125 3.765625 5.95703125 3.765625 7.8125 7.25 C8.43769531 8.38953125 9.06289063 9.5290625 9.70703125 10.703125 C11.05785832 14.14752998 11.1588667 15.55577047 10 19 C6.70259231 17.93985784 5.91192552 16.85813152 4.04296875 13.84765625 C3.41191934 12.5921722 2.79376231 11.33013937 2.1875 10.0625 C1.86330078 9.42892578 1.53910156 8.79535156 1.20507812 8.14257812 C-1.12948754 3.38846261 -1.12948754 3.38846261 0 0 Z " fill="#262626" transform="translate(509,738)"/>
<path d="M0 0 C0.51175781 0.24105469 1.02351563 0.48210937 1.55078125 0.73046875 C1.4765625 2.4609375 1.4765625 2.4609375 0.55078125 4.73046875 C-1.71447737 6.36274437 -3.83379517 7.70822081 -6.26171875 9.04296875 C-6.89142578 9.41486328 -7.52113281 9.78675781 -8.16992188 10.16992188 C-12.83417551 12.79815293 -12.83417551 12.79815293 -15.8984375 12.4609375 C-16.41019531 12.21988281 -16.92195313 11.97882813 -17.44921875 11.73046875 C-17.375 10 -17.375 10 -16.44921875 7.73046875 C-14.18396013 6.09819313 -12.06464233 4.75271669 -9.63671875 3.41796875 C-9.00701172 3.04607422 -8.37730469 2.67417969 -7.72851562 2.29101562 C-3.06426199 -0.33721543 -3.06426199 -0.33721543 0 0 Z " fill="#2A2A2A" transform="translate(284.44921875,453.26953125)"/>
<path d="M0 0 C-0.109375 1.796875 -0.109375 1.796875 -1 4 C-3.765625 5.703125 -3.765625 5.703125 -7.25 7.25 C-8.38953125 7.77078125 -9.5290625 8.2915625 -10.703125 8.828125 C-13.76724562 9.9172674 -15.79571959 10.26501567 -19 10 C-18.92578125 8.23828125 -18.92578125 8.23828125 -18 6 C-15.7186703 4.52141503 -13.62136274 3.34450209 -11.1875 2.1875 C-10.55779297 1.86330078 -9.92808594 1.53910156 -9.27929688 1.20507812 C-3.55194277 -1.60150568 -3.55194277 -1.60150568 0 0 Z " fill="#252525" transform="translate(578,624)"/>
<path d="M0 0 C0.52335938 0.23074219 1.04671875 0.46148437 1.5859375 0.69921875 C1.4765625 2.4609375 1.4765625 2.4609375 0.5859375 4.69921875 C-2.1796875 6.65625 -2.1796875 6.65625 -5.6640625 8.51171875 C-6.80359375 9.13691406 -7.943125 9.76210938 -9.1171875 10.40625 C-12.56159248 11.75707707 -13.96983297 11.85808545 -17.4140625 10.69921875 C-15.9117236 6.29951196 -13.01140816 5.00679087 -9.0390625 2.88671875 C-7.89695312 2.26152344 -6.75484375 1.63632812 -5.578125 0.9921875 C-2.4140625 -0.30078125 -2.4140625 -0.30078125 0 0 Z " fill="#232323" transform="translate(646.4140625,496.30078125)"/>
<path d="M0 0 C1.04414063 0.36158203 1.04414063 0.36158203 2.109375 0.73046875 C0.61602842 5.05434153 -2.58535855 6.80548979 -6.328125 9.04296875 C-7.20694336 9.60081055 -7.20694336 9.60081055 -8.10351562 10.16992188 C-9.82421875 11.21875 -9.82421875 11.21875 -12.890625 12.73046875 C-13.880625 12.40046875 -14.870625 12.07046875 -15.890625 11.73046875 C-15.62797074 8.49836219 -14.86429481 7.70797501 -12.34375 5.5546875 C-11.28671875 4.84957031 -10.2296875 4.14445313 -9.140625 3.41796875 C-8.09390625 2.69996094 -7.0471875 1.98195313 -5.96875 1.2421875 C-2.890625 -0.26953125 -2.890625 -0.26953125 0 0 Z " fill="#242424" transform="translate(475.890625,671.26953125)"/>
<path d="M0 0 C1.8671875 0.265625 1.8671875 0.265625 4 1 C5.1953125 2.671875 5.1953125 2.671875 6.125 4.75 C6.45113281 5.47316406 6.77726563 6.19632812 7.11328125 6.94140625 C7.40589844 7.62074219 7.69851563 8.30007813 8 9 C8.433125 9.886875 8.86625 10.77375 9.3125 11.6875 C10.14108576 14.4745612 9.7902346 16.23417888 9 19 C8.01 19 7.02 19 6 19 C4.98855432 16.77542155 3.99079735 14.54625709 3 12.3125 C2.71382812 11.68666016 2.42765625 11.06082031 2.1328125 10.41601562 C0.54255472 6.80007233 -0.36326652 3.95809151 0 0 Z " fill="#262626" transform="translate(649,391)"/>
<path d="M0 0 C0.81404297 0.36158203 0.81404297 0.36158203 1.64453125 0.73046875 C1.51171875 2.4609375 1.51171875 2.4609375 0.64453125 4.73046875 C-1.97265625 6.90625 -1.97265625 6.90625 -5.23046875 9.04296875 C-6.83535156 10.11998047 -6.83535156 10.11998047 -8.47265625 11.21875 C-9.89964844 11.96705078 -9.89964844 11.96705078 -11.35546875 12.73046875 C-12.34546875 12.40046875 -13.33546875 12.07046875 -14.35546875 11.73046875 C-14.05293928 8.61371165 -13.34500881 7.72083869 -10.9921875 5.5546875 C-10.01894531 4.84957031 -9.04570313 4.14445312 -8.04296875 3.41796875 C-6.59470703 2.34095703 -6.59470703 2.34095703 -5.1171875 1.2421875 C-2.35546875 -0.26953125 -2.35546875 -0.26953125 0 0 Z " fill="#232323" transform="translate(565.35546875,262.26953125)"/>
</svg>
